<svg width="101" height="45" viewBox="0 0 101 45" fill="none" xmlns="http://www.w3.org/2000/svg">
<rect x="0.5" width="30" height="45" fill="#202020"/>
<path d="M9.6505 31.9412V14.2532H12.6505V23.0852L20.3785 14.2532H23.9065L17.4025 21.8132L23.9065 31.9412H20.2585L15.3145 24.2132L12.6505 27.2852V31.9412H9.6505Z" fill="white"/>
<rect x="35.5" width="30" height="45" fill="#202020"/>
<path d="M44.0298 32L39.9978 19.448H43.0698L45.6138 29.144H46.2138L48.7578 19.448H51.9738L54.5418 29.144H55.1178L57.6858 19.448H60.7578L56.7018 32H52.9578L50.3658 23.984L47.7978 32H44.0298Z" fill="white"/>
<rect x="70.5" width="30" height="45" fill="#EF4444"/>
<path d="M78.9942 31.9412V14.2532H81.9942V21.3572H89.7462V14.2532H92.7462V31.9412H89.7462V23.9972H81.9942V31.9412H78.9942Z" fill="white"/>
</svg>
